<?xml version="1.0" standalone="no"?>
<!DOCTYPE svg PUBLIC "-//W3C//DTD SVG 20010904//EN"
 "http://www.w3.org/TR/2001/REC-SVG-20010904/DTD/svg10.dtd">
<svg version="1.0" xmlns="http://www.w3.org/2000/svg"
 width="512.000000pt" height="512.000000pt" viewBox="0 0 512.000000 512.000000"
 preserveAspectRatio="xMidYMid meet">
<metadata>
Created by potrace 1.14, written by Peter Selinger 2001-2017
</metadata>
<g transform="translate(0.000000,512.000000) scale(0.100000,-0.100000)"
fill="#000000" stroke="none">
<path d="M2356 4214 c-440 -59 -841 -286 -1119 -634 -192 -240 -309 -513 -362
-845 -11 -67 -13 -325 -4 -409 80 -702 572 -1283 1249 -1473 157 -44 317 -63
500 -59 148 4 200 10 371 45 78 16 229 71 334 121 373 179 680 500 839 880 94
223 129 396 130 640 1 189 -4 251 -29 375 -81 399 -300 750 -631 1015 -175
141 -499 289 -709 325 -207 35 -397 42 -569 19z m439 -518 c322 -71 582 -239
766 -495 92 -130 158 -280 196 -446 22 -97 26 -346 7 -450 -85 -470 -435 -845
-899 -962 -137 -34 -378 -41 -507 -13 -135 28 -218 57 -325 111 -335 171 -578
501 -639 869 -2 14 -6 39 -9 56 -11 66 -5 255 10 345 19 110 61 243 106 331
28 56 95 165 109 178 3 3 18 22 33 42 77 104 238 236 377 311 84 45 240 102
310 113 19 3 53 10 75 14 45 9 344 6 390 -4z"/>
<path d="M2082 3015 c-17 -8 -35 -22 -41 -34 -6 -11 -11 -70 -11 -131 0 -110
0 -112 30 -141 23 -23 36 -29 57 -26 73 13 84 35 85 176 0 87 -3 107 -19 129
-25 33 -62 43 -101 27z"/>
<path d="M2989 3000 c-30 -30 -30 -30 -31 -160 -1 -99 8 -126 47 -144 46 -22
62 -20 96 13 29 29 29 31 29 146 0 110 -1 117 -25 140 -13 14 -30 25 -37 26
-7 0 -22 2 -32 4 -11 2 -31 -8 -47 -25z"/>
<path d="M2674 2632 c-9 -6 -369 -497 -388 -530 -5 -8 12 -21 56 -41 137 -62
178 -82 178 -86 0 -2 -20 -85 -45 -185 -24 -99 -42 -187 -39 -194 9 -23 31
-26 53 -8 33 28 390 524 385 536 -2 6 -56 33 -119 60 -63 27 -115 54 -115 61
0 6 20 90 44 186 30 121 41 179 35 192 -10 18 -27 22 -45 9z"/>
</g>
</svg>
